<?xml version="1.0" encoding="UTF-8"?>
<svg width="24px" height="24px" viewBox="0 0 24 24" version="1.1" xmlns="http://www.w3.org/2000/svg" xmlns:xlink="http://www.w3.org/1999/xlink">
    <title>Music Note</title>
    <g stroke="none" stroke-width="1" fill="none" fill-rule="evenodd">
        <path d="M12,2 C6.48,2 2,6.48 2,12 C2,17.52 6.48,22 12,22 C17.52,22 22,17.52 22,12 C22,6.48 17.52,2 12,2 Z" fill="#1DB954" fill-rule="nonzero"></path>
        <path d="M10,16.5 L10,7.5 L16,7.5 L16,11.5 C16,12.33 15.33,13 14.5,13 C13.67,13 13,12.33 13,11.5 C13,10.67 13.67,10 14.5,10 C14.83,10 15.15,10.13 15.38,10.33 L15.38,9 L11.5,9 L11.5,16.5 C11.5,17.33 10.83,18 10,18 C9.17,18 8.5,17.33 8.5,16.5 C8.5,15.67 9.17,15 10,15 C10.33,15 10.65,15.13 10.88,15.33 L10.88,15.33 L10,16.5 Z" fill="#FFFFFF" fill-rule="nonzero"></path>
    </g>
</svg>